<svg xmlns="http://www.w3.org/2000/svg" width="124.231" height="153.941" viewBox="0 0 124.231 153.941">
  <defs>
    <style>
      .cls-1 {
        isolation: isolate;
      }

      .cls-2 {
        fill: #314a74;
      }
    </style>
  </defs>
  <g id="ANDROID_LOGO" data-name="ANDROID LOGO" class="cls-1" transform="translate(0)">
    <g id="Grupo_1" data-name="Grupo 1" transform="translate(0 0)">
      <path id="Trazado_1" data-name="Trazado 1" class="cls-2" d="M72.537,15.332l6.744-11.24a2.7,2.7,0,0,0-4.632-2.779L67.533,13.174a39.742,39.742,0,0,0-27.044,0L33.372,1.313a2.7,2.7,0,0,0-4.632,2.779l6.744,11.24A40.52,40.52,0,0,0,13.5,51.316a2.7,2.7,0,0,0,2.7,2.7H91.82a2.7,2.7,0,0,0,2.7-2.7A40.531,40.531,0,0,0,72.537,15.332ZM19,48.615a35.11,35.11,0,0,1,70.012,0Z" transform="translate(8.107 0)"/>
      <path id="Trazado_2" data-name="Trazado 2" class="cls-2" d="M38.84,11.364H35.281a1.78,1.78,0,0,0-1.78,1.78V16.7a1.78,1.78,0,0,0,1.78,1.78h3.562a1.78,1.78,0,0,0,1.78-1.78V13.144A1.782,1.782,0,0,0,38.84,11.364Z" transform="translate(42.12 19.327)"/>
      <path id="Trazado_3" data-name="Trazado 3" class="cls-2" d="M26.2,11.364H22.643a1.78,1.78,0,0,0-1.78,1.78V16.7a1.78,1.78,0,0,0,1.78,1.78H26.2a1.78,1.78,0,0,0,1.78-1.78V13.144A1.78,1.78,0,0,0,26.2,11.364Z" transform="translate(20.627 19.327)"/>
      <path id="Trazado_4" data-name="Trazado 4" class="cls-2" d="M91.819,21H16.2a2.7,2.7,0,0,0-2.7,2.7V78.177A13.063,13.063,0,0,0,26.555,91.218H29.7v16.22a10.8,10.8,0,0,0,21.605,0V91.218h5.4v16.22a10.8,10.8,0,0,0,21.605,0V91.218h3.149A13.062,13.062,0,0,0,94.52,78.177V23.7A2.7,2.7,0,0,0,91.819,21Zm-2.7,57.176a7.655,7.655,0,0,1-7.654,7.64h-5.85a2.7,2.7,0,0,0-2.7,2.7v18.921a5.4,5.4,0,0,1-10.8,0V88.518a2.7,2.7,0,0,0-2.7-2.7h-10.8a2.7,2.7,0,0,0-2.7,2.7v18.921a5.4,5.4,0,0,1-10.8,0V88.518a2.7,2.7,0,0,0-2.7-2.7H26.558a7.659,7.659,0,0,1-7.656-7.64V26.4H89.119Z" transform="translate(8.105 35.717)"/>
      <path id="Trazado_5" data-name="Trazado 5" class="cls-2" d="M53.952,21A9.468,9.468,0,0,0,44.5,30.464V68.252a9.452,9.452,0,1,0,18.9,0V30.464A9.468,9.468,0,0,0,53.952,21ZM58,68.252a4.051,4.051,0,1,1-8.1,0V30.464a4.051,4.051,0,1,1,8.1,0Z" transform="translate(60.826 35.717)"/>
      <path id="Trazado_6" data-name="Trazado 6" class="cls-2" d="M14.952,21A9.468,9.468,0,0,0,5.5,30.464V68.252a9.452,9.452,0,1,0,18.9,0V30.464A9.468,9.468,0,0,0,14.952,21ZM19,68.252a4.051,4.051,0,1,1-8.1,0V30.464a4.051,4.051,0,1,1,8.1,0Z" transform="translate(-5.5 35.717)"/>
    </g>
  </g>
</svg>
