<svg xmlns="http://www.w3.org/2000/svg" xmlns:xlink="http://www.w3.org/1999/xlink" width="301.939" height="85.868" viewBox="0 0 301.939 85.868">
  <defs>
    <style>
      .cls-1 {
        fill: #314a74;
      }

      .cls-2 {
        isolation: isolate;
      }

      .cls-3 {
        clip-path: url(#clip-path);
      }
    </style>
    <clipPath id="clip-path">
      <rect id="Rectángulo_73" data-name="Rectángulo 73" class="cls-1" width="301.939" height="85.868"/>
    </clipPath>
  </defs>
  <g id="MERN_LOGO" data-name="MERN LOGO" class="cls-2">
    <g id="Grupo_11" data-name="Grupo 11" class="cls-3" transform="translate(0 0)">
      <path id="Trazado_14" data-name="Trazado 14" class="cls-1" d="M0,21.467V64.4L37.181,85.869,74.364,64.4V21.467L37.181,0ZM40.224,35.3a.4.4,0,0,0,.34.2.387.387,0,0,0,.318-.17c3.053-2.316,6.079-3.7,8.105-3.7,4.786,0,7.648,3.585,7.648,9.584,0,1.726-.016,3.913-.034,5.953-.013,1.79-.027,3.469-.027,4.63a1.6,1.6,0,0,0,.944,1.219,12.121,12.121,0,0,0,2.991.736h.049a4.443,4.443,0,0,1-.3,1.958c-.318,0-.756-.028-1.3-.054-.994-.05-2.358-.119-3.943-.119-3.182,0-4.844.06-6.433.165a4.818,4.818,0,0,1-.016-1.947,16.758,16.758,0,0,0,1.949-.425c1.014-.334,1.306-.794,1.369-2.139.025-.956.208-9.376-.118-11.375a5.09,5.09,0,0,0-5.277-4.5,9.289,9.289,0,0,0-5.263,2.007.765.765,0,0,0-.192.5v.041a21.51,21.51,0,0,1,.23,4.242c0,1.1,0,2.238-.014,3.379-.014,2.322-.025,4.513.014,6.17a1.552,1.552,0,0,0,1.231,1.615c.3.066.534.124.773.179.457.112.933.227,1.643.339a3.147,3.147,0,0,1-.028,1.457,1.165,1.165,0,0,1-.2.495c-1.77-.06-3.585-.112-6.205-.112-.795,0-2.089.032-3.234.063-.928.025-1.8.049-2.3.052a2.257,2.257,0,0,1-.176-1.008,1.744,1.744,0,0,1,.184-.941l.7-.129c.613-.11,1.144-.2,1.643-.329.865-.274,1.191-.745,1.254-1.849.17-2.574.3-9.992-.063-11.849-.619-2.979-2.314-4.491-5.041-4.491a9.491,9.491,0,0,0-5.263,2,1.6,1.6,0,0,0-.485,1.192V41.4c0,3.724-.025,8.36.066,10.365a1.642,1.642,0,0,0,1.432,1.62c.255.074.693.145,1.2.23.293.048.613.1.945.162a4.152,4.152,0,0,1-.157,1.957c-.51,0-1.136-.033-1.854-.063-1.095-.05-2.464-.11-4.012-.11-1.829,0-3.1.06-4.124.11-.687.033-1.281.06-1.875.063h-.006a2.537,2.537,0,0,1-.177-1.17,1.479,1.479,0,0,1,.177-.78,20.047,20.047,0,0,0,2.246-.458c1.035-.257,1.424-.821,1.484-2.141.17-3.119.18-8.971.121-13.084v-.121a1.665,1.665,0,0,0-.548-1.47,11.769,11.769,0,0,0-3.1-1.369c-.49-.145-.762-.4-.748-.7s.323-.657.961-.783A36.887,36.887,0,0,0,25.6,31.622a1.153,1.153,0,0,1,.233.821c0,.181-.027.372-.046.569-.049.581-.1,1.24-.1,1.9a.432.432,0,0,0,.486.371.437.437,0,0,0,.247-.122c3.321-2.6,6.3-3.532,7.824-3.532,2.51,0,4.466,1.2,5.98,3.67" transform="translate(0 0)"/>
      <path id="Trazado_15" data-name="Trazado 15" class="cls-1" d="M137.386,52.529h21.267c-.139-6.774-4.357-11.586-10.122-11.627C142.2,40.854,137.66,45.55,137.386,52.529Z" transform="translate(-34.98 -10.414)"/>
      <path id="Trazado_16" data-name="Trazado 16" class="cls-1" d="M101.769,21.467V64.4l37.182,21.467L176.133,64.4V21.467L138.951,0Zm45.034,9.5c4.175,3.284,5.212,7.931,5.006,13.135H128.275c-.353,9.368,6.389,15.022,14.985,12.137a8.911,8.911,0,0,0,5.681-6.328c.451-1.48,1.2-1.712,2.589-1.289-.71,3.695-2.313,6.781-5.7,8.712-5.061,2.891-12.285,1.957-16.085-2.062a14.3,14.3,0,0,1-3.618-8.445c-.066-.523-.2-1.02-.3-1.52q.013-1.282.013-2.565h0l.928-4.567c2.528-9.038,12.888-12.793,20.032-7.209" transform="translate(-25.912 0)"/>
      <path id="Trazado_17" data-name="Trazado 17" class="cls-1" d="M246.255,43.157V53.915a.693.693,0,0,0,.162.058c2.762-.033,5.527-.015,8.286-.126a4.7,4.7,0,0,0,3.345-1.671,5.46,5.46,0,0,0,1.233-4.838,5.1,5.1,0,0,0-4.964-4.188c-2.5-.1-5.005-.022-7.509-.021-.181,0-.362.019-.552.028" transform="translate(-62.699 -10.974)"/>
      <path id="Trazado_18" data-name="Trazado 18" class="cls-1" d="M203.541,21.467V64.4l37.182,21.467L277.9,64.4V21.467L240.723,0ZM251.774,33.95a9.379,9.379,0,0,1-.246,7.687,7.569,7.569,0,0,1-6.263,4.29,1.169,1.169,0,0,0-.193.09l7.76,11.72c-1.536,0-2.935.007-4.331-.013-.123,0-.278-.169-.36-.3q-2.609-4.039-5.2-8.084c-.6-.93-1.193-1.863-1.811-2.779a.7.7,0,0,0-.479-.294c-1.688-.02-3.377-.01-5.066-.006a1.062,1.062,0,0,0-.217.061V57.7H231.7V28.8h.695c3.986,0,7.972-.086,11.954.028a8.027,8.027,0,0,1,7.423,5.125" transform="translate(-51.824 0)"/>
      <path id="Trazado_19" data-name="Trazado 19" class="cls-1" d="M342.493,0,305.311,21.467V64.4l37.182,21.467L379.675,64.4V21.467Zm14.7,58.446a.816.816,0,0,1-.867,0l-8.4-4.8a1.7,1.7,0,0,1-.866-1.467V41.949a1.7,1.7,0,0,0-.867-1.467l-3.566-2.066a1.433,1.433,0,0,0-.833-.233,1.619,1.619,0,0,0-.867.233l-3.566,2.066a1.7,1.7,0,0,0-.867,1.467V52.18a1.7,1.7,0,0,1-.866,1.467l-8.4,4.8a.758.758,0,0,1-.833,0,.831.831,0,0,1-.433-.733l-.033-21.862a1.7,1.7,0,0,1,.866-1.466l14.13-8.132a1.585,1.585,0,0,1,.767-.233h.133a2.054,2.054,0,0,1,.766.233l14.13,8.132a1.7,1.7,0,0,1,.866,1.466l.034,21.862a.831.831,0,0,1-.433.733" transform="translate(-77.736 0)"/>
    </g>
  </g>
</svg>
