<svg xmlns="http://www.w3.org/2000/svg" width="159.859" height="142.18" viewBox="0 0 159.859 142.18">
  <defs>
    <style>
      .cls-1 {
        isolation: isolate;
      }

      .cls-2 {
        fill: #314a74;
      }

      .cls-3 {
        fill: none;
        stroke: #314a74;
        stroke-width: 6px;
        fill-rule: evenodd;
      }
    </style>
  </defs>
  <g id="REACT_LOGO" data-name="REACT LOGO" class="cls-1" transform="translate(3 3.031)">
    <g id="reactjs-icon" transform="translate(0 0)">
      <circle id="Elipse_1" data-name="Elipse 1" class="cls-2" cx="14.352" cy="14.352" r="14.352" transform="translate(62.579 53.573)"/>
      <g id="Grupo_8" data-name="Grupo 8" transform="translate(0)">
        <path id="Trazado_11" data-name="Trazado 11" class="cls-3" d="M76.966,7.725c19.269,0,37.17,2.765,50.667,7.412,16.262,5.6,26.261,14.085,26.261,21.769,0,8.007-10.6,17.023-28.06,22.809-13.2,4.374-30.577,6.658-48.868,6.658-18.754,0-36.513-2.143-49.864-6.706C10.21,53.893.035,44.761.035,36.906c0-7.622,9.547-16.042,25.58-21.633,13.548-4.723,31.89-7.548,51.348-7.548Z" transform="translate(-0.035 31.019)"/>
        <path id="Trazado_12" data-name="Trazado 12" class="cls-3" d="M26.691,53.43c9.627-16.692,20.964-30.818,31.732-40.189C71.4,1.95,83.744-2.471,90.4,1.367c6.937,4,9.453,17.684,5.741,35.7-2.8,13.623-9.508,29.813-18.646,45.659-9.369,16.246-20.1,30.559-30.719,39.843-13.44,11.749-26.434,16-33.239,12.076-6.6-3.8-9.128-16.284-5.96-32.966,2.676-14.1,9.393-31.4,19.11-48.252Z" transform="translate(24.837 -0.011)"/>
        <path id="Trazado_13" data-name="Trazado 13" class="cls-3" d="M26.683,82.646C17.029,65.972,10.456,49.092,7.713,35.083,4.41,18.2,6.745,5.3,13.4,1.449c6.93-4.012,20.042.642,33.8,12.857,10.4,9.235,21.081,23.126,30.246,38.957,9.4,16.23,16.438,32.674,19.178,46.512,3.466,17.512.661,30.893-6.137,34.828-6.6,3.819-18.667-.224-31.538-11.3-10.875-9.358-22.51-23.817-32.259-40.657Z" transform="translate(24.869 0.113)"/>
      </g>
    </g>
  </g>
</svg>
